<svg version="1.0" xmlns="http://www.w3.org/2000/svg" width="500.000000pt" height="500.000000pt" viewBox="0 0 500.000000 500.000000" preserveAspectRatio="xMidYMid meet">
    <g transform="translate(0.000000,500.000000) scale(0.100000,-0.100000)" fill="#4d66d7" stroke="none">
        <path d="M1335 4865 c-631 -100 -1104 -577 -1201 -1210 -20 -132 -20 -2178 0 -2310 98 -638 573 -1113 1211 -1211 72 -11 300 -14 1155 -14 1115 0 1140 1 1310 44 496 127 899 530 1026 1026 43 170 44 195 44 1310 0 855 -3 1083 -14 1155 -98 638 -573 1113 -1211 1211 -126 19 -2198 18 -2320 -1z m1655 -938 c220 -65 398 -244 455 -457 9 -32 15 -101 15 -167 0 -92 -4 -126 -25 -192 -31 -98 -105 -211 -183 -281 -65 -58 -209 -133 -290 -149 -33 -7 -205 -11 -455 -11 -325 0 -414 3 -467 16 -215 50 -400 229 -466 449 -25 83 -25 258 0 340 76 252 281 431 535 466 31 4 229 6 441 5 320 -3 394 -6 440 -19z m-30 -1613 c215 -50 400 -228 466 -449 13 -43 18 -92 18 -175 0 -102 -4 -125 -30 -200 -61 -174 -182 -305 -348 -380 -118 -53 -139 -55 -576 -55 -452 0 -460 1 -599 67 -157 75 -291 237 -336 408 -9 32 -15 101 -15 167 0 92 4 126 25 192 31 98 105 211 183 281 64 57 193 126 274 145 83 21 851 20 938 -1z"/>
        <path d="M2097 3689 c-90 -21 -178 -83 -232 -164 -50 -77 -68 -141 -63 -239 8 -186 141 -336 324 -366 95 -16 706 -12 784 4 247 53 380 320 273 547 -50 108 -142 184 -258 215 -58 16 -763 18 -828 3z m201 -168 c50 -25 109 -93 122 -140 34 -123 -26 -251 -140 -299 -53 -22 -141 -18 -195 9 -145 73 -179 264 -67 382 72 76 187 95 280 48z"/>
        <path d="M2085 2075 c-242 -53 -374 -321 -268 -546 34 -74 105 -150 172 -183 87 -44 131 -48 536 -44 l380 3 58 27 c80 38 128 78 172 143 50 77 68 141 63 239 -8 186 -141 336 -324 366 -92 15 -716 11 -789 -5z m834 -168 c111 -54 161 -194 110 -307 -43 -96 -117 -144 -219 -144 -79 0 -131 24 -184 86 -117 136 -40 354 136 387 56 10 103 4 157 -22z"/>
    </g>
</svg>